<mxfile host="app.diagrams.net" modified="2021-06-30T01:28:15.632Z" agent="5.0 (Macintosh; Intel Mac OS X 10_15_7) AppleWebKit/537.36 (KHTML, like Gecko) Chrome/91.0.4472.114 Safari/537.36" etag="5BgeyJZqocYCmWYwVTzj" version="14.8.2" type="github" pages="2">
  <diagram id="6SxQUI5XdRAQBPWD44at" name="Page-1">
    <mxGraphModel dx="946" dy="588" grid="1" gridSize="10" guides="1" tooltips="1" connect="1" arrows="1" fold="1" page="1" pageScale="1" pageWidth="827" pageHeight="1169" math="0" shadow="0">
      <root>
        <mxCell id="0" />
        <mxCell id="1" parent="0" />
        <mxCell id="_jBW7eixfz2iRNHVZYH6-1" value="同程旅行APP" style="rounded=0;whiteSpace=wrap;html=1;fillColor=#f5f5f5;strokeColor=#666666;fontColor=#333333;" parent="1" vertex="1">
          <mxGeometry x="40" y="30" width="240" height="40" as="geometry" />
        </mxCell>
        <mxCell id="_jBW7eixfz2iRNHVZYH6-6" value="" style="shape=flexArrow;endArrow=classic;html=1;endWidth=17;endSize=8.28;width=8;fillColor=#f5f5f5;strokeColor=#666666;" parent="1" edge="1">
          <mxGeometry width="50" height="50" relative="1" as="geometry">
            <mxPoint x="159.5" y="70" as="sourcePoint" />
            <mxPoint x="160" y="110" as="targetPoint" />
          </mxGeometry>
        </mxCell>
        <mxCell id="_jBW7eixfz2iRNHVZYH6-7" value="Bridge层" style="rounded=0;whiteSpace=wrap;html=1;fillColor=#fff2cc;strokeColor=#d6b656;" parent="1" vertex="1">
          <mxGeometry x="40" y="110" width="240" height="40" as="geometry" />
        </mxCell>
        <mxCell id="_jBW7eixfz2iRNHVZYH6-13" value="" style="shape=flexArrow;endArrow=classic;html=1;width=8;endSize=5.67;fillColor=#fff2cc;strokeColor=#d6b656;" parent="1" edge="1">
          <mxGeometry width="50" height="50" relative="1" as="geometry">
            <mxPoint x="159.5" y="150" as="sourcePoint" />
            <mxPoint x="159.5" y="190" as="targetPoint" />
          </mxGeometry>
        </mxCell>
        <mxCell id="_jBW7eixfz2iRNHVZYH6-15" value="" style="rounded=0;whiteSpace=wrap;html=1;fillColor=#e1d5e7;strokeColor=#9673a6;" parent="1" vertex="1">
          <mxGeometry x="40" y="190" width="240" height="150" as="geometry" />
        </mxCell>
        <mxCell id="_jBW7eixfz2iRNHVZYH6-17" value="原&lt;br&gt;生&lt;br&gt;层" style="text;html=1;strokeColor=none;fillColor=none;align=center;verticalAlign=middle;whiteSpace=wrap;rounded=0;" parent="1" vertex="1">
          <mxGeometry x="50" y="270" width="10" height="10" as="geometry" />
        </mxCell>
        <mxCell id="_jBW7eixfz2iRNHVZYH6-28" value="" style="rounded=0;whiteSpace=wrap;html=1;fillColor=#fff2cc;strokeColor=#d6b656;" parent="1" vertex="1">
          <mxGeometry x="40" y="370" width="240" height="210" as="geometry" />
        </mxCell>
        <mxCell id="_jBW7eixfz2iRNHVZYH6-52" value="" style="edgeStyle=orthogonalEdgeStyle;rounded=0;orthogonalLoop=1;jettySize=auto;html=1;" parent="1" source="_jBW7eixfz2iRNHVZYH6-38" target="_jBW7eixfz2iRNHVZYH6-40" edge="1">
          <mxGeometry relative="1" as="geometry">
            <Array as="points">
              <mxPoint x="130" y="280" />
              <mxPoint x="130" y="280" />
            </Array>
          </mxGeometry>
        </mxCell>
        <mxCell id="_jBW7eixfz2iRNHVZYH6-38" value="iOS原生" style="rounded=0;whiteSpace=wrap;html=1;fillColor=#d5e8d4;strokeColor=#82b366;" parent="1" vertex="1">
          <mxGeometry x="90" y="210" width="80" height="35" as="geometry" />
        </mxCell>
        <mxCell id="_jBW7eixfz2iRNHVZYH6-53" value="" style="edgeStyle=orthogonalEdgeStyle;rounded=0;orthogonalLoop=1;jettySize=auto;html=1;" parent="1" source="_jBW7eixfz2iRNHVZYH6-39" target="_jBW7eixfz2iRNHVZYH6-40" edge="1">
          <mxGeometry relative="1" as="geometry">
            <Array as="points">
              <mxPoint x="225" y="280" />
              <mxPoint x="225" y="280" />
            </Array>
          </mxGeometry>
        </mxCell>
        <mxCell id="_jBW7eixfz2iRNHVZYH6-39" value="Android原生" style="rounded=0;whiteSpace=wrap;html=1;fillColor=#d5e8d4;strokeColor=#82b366;" parent="1" vertex="1">
          <mxGeometry x="180" y="210" width="90" height="35" as="geometry" />
        </mxCell>
        <mxCell id="_jBW7eixfz2iRNHVZYH6-40" value="12306服务器" style="rounded=0;whiteSpace=wrap;html=1;fillColor=#f8cecc;strokeColor=#b85450;" parent="1" vertex="1">
          <mxGeometry x="90" y="280" width="180" height="35" as="geometry" />
        </mxCell>
        <mxCell id="_jBW7eixfz2iRNHVZYH6-50" value="服务层" style="text;html=1;strokeColor=none;fillColor=none;align=center;verticalAlign=middle;whiteSpace=wrap;rounded=0;" parent="1" vertex="1">
          <mxGeometry x="50" y="465" width="40" height="20" as="geometry" />
        </mxCell>
        <mxCell id="_jBW7eixfz2iRNHVZYH6-55" value="直连配置" style="rounded=0;whiteSpace=wrap;html=1;fillColor=#76608a;strokeColor=#432D57;fontColor=#ffffff;" parent="1" vertex="1">
          <mxGeometry x="130" y="380" width="100" height="30" as="geometry" />
        </mxCell>
        <mxCell id="_jBW7eixfz2iRNHVZYH6-56" value="加密服务" style="rounded=0;whiteSpace=wrap;html=1;fillColor=#76608a;strokeColor=#432D57;fontColor=#ffffff;" parent="1" vertex="1">
          <mxGeometry x="130" y="420" width="100" height="30" as="geometry" />
        </mxCell>
        <mxCell id="_jBW7eixfz2iRNHVZYH6-59" value="订单服务" style="rounded=0;whiteSpace=wrap;html=1;fillColor=#76608a;strokeColor=#432D57;fontColor=#ffffff;" parent="1" vertex="1">
          <mxGeometry x="130" y="460" width="100" height="30" as="geometry" />
        </mxCell>
        <mxCell id="_jBW7eixfz2iRNHVZYH6-63" value="登录、常旅服务" style="rounded=0;whiteSpace=wrap;html=1;fillColor=#76608a;strokeColor=#432D57;fontColor=#ffffff;" parent="1" vertex="1">
          <mxGeometry x="130" y="500" width="100" height="30" as="geometry" />
        </mxCell>
        <mxCell id="_jBW7eixfz2iRNHVZYH6-64" value="日志服务" style="rounded=0;whiteSpace=wrap;html=1;fillColor=#76608a;strokeColor=#432D57;fontColor=#ffffff;" parent="1" vertex="1">
          <mxGeometry x="130" y="540" width="100" height="30" as="geometry" />
        </mxCell>
        <mxCell id="_jBW7eixfz2iRNHVZYH6-73" value="" style="shape=singleArrow;whiteSpace=wrap;html=1;arrowWidth=0.38181818181818183;arrowSize=0.5818181818181818;rounded=0;strokeColor=#9673a6;fillColor=#e1d5e7;rotation=90;" parent="1" vertex="1">
          <mxGeometry x="146.25" y="342.5" width="27.5" height="27.5" as="geometry" />
        </mxCell>
      </root>
    </mxGraphModel>
  </diagram>
  <diagram id="xNC_JCMIJ69Reuoo5KqZ" name="Page-2">
    <mxGraphModel dx="946" dy="588" grid="1" gridSize="10" guides="1" tooltips="1" connect="1" arrows="1" fold="1" page="1" pageScale="1" pageWidth="827" pageHeight="1169" math="0" shadow="0">
      <root>
        <mxCell id="4crPN2dIdssn6anfRAhi-0" />
        <mxCell id="4crPN2dIdssn6anfRAhi-1" parent="4crPN2dIdssn6anfRAhi-0" />
        <mxCell id="FWdL1D2Cv9FFLDuEK_EP-0" value="同程旅行APP（H5）" style="rounded=0;whiteSpace=wrap;html=1;fillColor=#f5f5f5;strokeColor=#666666;fontColor=#333333;" parent="4crPN2dIdssn6anfRAhi-1" vertex="1">
          <mxGeometry x="320" y="30" width="240" height="40" as="geometry" />
        </mxCell>
        <mxCell id="FWdL1D2Cv9FFLDuEK_EP-1" value="" style="shape=flexArrow;endArrow=classic;html=1;endWidth=17;endSize=8.28;width=8;fillColor=#f5f5f5;strokeColor=#666666;" parent="4crPN2dIdssn6anfRAhi-1" edge="1">
          <mxGeometry width="50" height="50" relative="1" as="geometry">
            <mxPoint x="439" y="70" as="sourcePoint" />
            <mxPoint x="439.5" y="110" as="targetPoint" />
          </mxGeometry>
        </mxCell>
        <mxCell id="FWdL1D2Cv9FFLDuEK_EP-2" value="&lt;span&gt;Bridge层&lt;/span&gt;" style="rounded=0;whiteSpace=wrap;html=1;fillColor=#fff2cc;strokeColor=#d6b656;" parent="4crPN2dIdssn6anfRAhi-1" vertex="1">
          <mxGeometry x="320" y="110" width="240" height="40" as="geometry" />
        </mxCell>
        <mxCell id="FWdL1D2Cv9FFLDuEK_EP-23" value="" style="shape=singleArrow;whiteSpace=wrap;html=1;arrowWidth=0.4;arrowSize=0.4;rounded=0;strokeColor=#d6b656;fillColor=#fff2cc;" parent="4crPN2dIdssn6anfRAhi-1" vertex="1">
          <mxGeometry x="560" y="117.5" width="50" height="25" as="geometry" />
        </mxCell>
        <mxCell id="FWdL1D2Cv9FFLDuEK_EP-27" value="直连SDK" style="rounded=0;whiteSpace=wrap;html=1;fillColor=#e1d5e7;strokeColor=#9673a6;" parent="4crPN2dIdssn6anfRAhi-1" vertex="1">
          <mxGeometry x="610" y="100" width="120" height="60" as="geometry" />
        </mxCell>
        <mxCell id="FWdL1D2Cv9FFLDuEK_EP-30" value="" style="shape=singleArrow;whiteSpace=wrap;html=1;arrowWidth=0.5111111111111111;arrowSize=0.36666666666666664;rounded=0;strokeColor=#d6b656;fillColor=#fff2cc;direction=west;" parent="4crPN2dIdssn6anfRAhi-1" vertex="1">
          <mxGeometry x="270" y="117.5" width="50" height="22.5" as="geometry" />
        </mxCell>
        <mxCell id="FWdL1D2Cv9FFLDuEK_EP-35" value="" style="rounded=0;whiteSpace=wrap;html=1;fillColor=#f8cecc;strokeColor=#b85450;" parent="4crPN2dIdssn6anfRAhi-1" vertex="1">
          <mxGeometry x="70" y="15" width="200" height="230" as="geometry" />
        </mxCell>
        <mxCell id="FWdL1D2Cv9FFLDuEK_EP-37" value="服务层" style="text;html=1;strokeColor=none;fillColor=none;align=center;verticalAlign=middle;whiteSpace=wrap;rounded=0;" parent="4crPN2dIdssn6anfRAhi-1" vertex="1">
          <mxGeometry x="80" y="120" width="40" height="20" as="geometry" />
        </mxCell>
        <mxCell id="FWdL1D2Cv9FFLDuEK_EP-38" value="直连配置" style="rounded=0;whiteSpace=wrap;html=1;fillColor=#76608a;strokeColor=#432D57;fontColor=#ffffff;" parent="4crPN2dIdssn6anfRAhi-1" vertex="1">
          <mxGeometry x="150" y="30" width="100" height="30" as="geometry" />
        </mxCell>
        <mxCell id="FWdL1D2Cv9FFLDuEK_EP-39" value="加密服务" style="rounded=0;whiteSpace=wrap;html=1;fillColor=#76608a;strokeColor=#432D57;fontColor=#ffffff;" parent="4crPN2dIdssn6anfRAhi-1" vertex="1">
          <mxGeometry x="150" y="70" width="100" height="30" as="geometry" />
        </mxCell>
        <mxCell id="FWdL1D2Cv9FFLDuEK_EP-40" value="订单服务" style="rounded=0;whiteSpace=wrap;html=1;fillColor=#76608a;strokeColor=#432D57;fontColor=#ffffff;" parent="4crPN2dIdssn6anfRAhi-1" vertex="1">
          <mxGeometry x="150" y="110" width="100" height="30" as="geometry" />
        </mxCell>
        <mxCell id="FWdL1D2Cv9FFLDuEK_EP-41" value="登录、常旅服务" style="rounded=0;whiteSpace=wrap;html=1;fillColor=#76608a;strokeColor=#432D57;fontColor=#ffffff;" parent="4crPN2dIdssn6anfRAhi-1" vertex="1">
          <mxGeometry x="150" y="150" width="100" height="30" as="geometry" />
        </mxCell>
        <mxCell id="FWdL1D2Cv9FFLDuEK_EP-43" value="日志服务" style="rounded=0;whiteSpace=wrap;html=1;fillColor=#76608a;strokeColor=#432D57;fontColor=#ffffff;" parent="4crPN2dIdssn6anfRAhi-1" vertex="1">
          <mxGeometry x="150" y="190" width="100" height="30" as="geometry" />
        </mxCell>
      </root>
    </mxGraphModel>
  </diagram>
</mxfile>
